<svg xmlns="http://www.w3.org/2000/svg" width="2048" height="682" viewBox="0 0 2048 682" role="img" aria-labelledby="title desc">
  <title id="title">pi-repro logo</title>
  <desc id="desc">Vector trace of the pi-repro wordmark with navy pi- and teal repro text on a transparent background.</desc>
  <defs>
    <linearGradient id="navy" x1="0" y1="162" x2="0" y2="556" gradientUnits="userSpaceOnUse">
      <stop offset="0" stop-color="#082F5E"/>
      <stop offset="1" stop-color="#001D3F"/>
    </linearGradient>
    <linearGradient id="teal" x1="0" y1="257" x2="0" y2="555" gradientUnits="userSpaceOnUse">
      <stop offset="0" stop-color="#06ADB7"/>
      <stop offset="1" stop-color="#009BA6"/>
    </linearGradient>
  </defs>
  <g fill-rule="evenodd" clip-rule="evenodd">
    <path fill="url(#navy)" d="M 550 224.5 L 537 224.5 L 525 218.5 L 517.5 210 L 513.5 198 L 514.5 185 L 516.5 179 L 519.5 174 L 525 168.5 L 531 164.5 L 537 162.5 L 540 162.5 L 541 161.5 L 552 162.5 L 558 164.5 L 563 167.5 L 570.5 175 L 575.5 187 L 575.5 200 L 573.5 206 L 570.5 211 L 562 219.5 L 550 224.5 Z
M 315 554.5 L 266 554.5 L 263.5 552 L 263.5 263 L 266 260.5 L 313 260.5 L 316.5 264 L 317 284.5 L 323 277.5 L 336 267.5 L 341 265.5 L 345 262.5 L 360 257.5 L 365 257.5 L 366 256.5 L 371 256.5 L 372 255.5 L 391 255.5 L 392 256.5 L 407 257.5 L 408 258.5 L 418 260.5 L 421 262.5 L 428 264.5 L 439 270.5 L 451 279.5 L 461.5 290 L 468.5 299 L 478.5 318 L 478.5 320 L 480.5 323 L 484.5 335 L 484.5 339 L 486.5 345 L 486.5 355 L 487.5 356 L 487.5 376 L 486.5 377 L 486.5 385 L 485.5 386 L 485.5 391 L 484.5 392 L 484.5 395 L 483.5 396 L 483.5 399 L 480.5 408 L 471.5 427 L 465.5 436 L 451 451.5 L 433 463.5 L 423 468.5 L 417 470.5 L 414 470.5 L 413 471.5 L 410 471.5 L 409 472.5 L 399 473.5 L 398 474.5 L 373 474.5 L 372 473.5 L 366 473.5 L 365 472.5 L 357 471.5 L 351 469.5 L 346 466.5 L 344 466.5 L 337 462.5 L 317 446.5 L 316.5 510 L 317.5 513 L 316.5 514 L 316.5 530 L 317.5 531 L 317.5 551 L 315 554.5 Z
M 569 469.5 L 521 469.5 L 517.5 466 L 517.5 264 L 521 260.5 L 568 260.5 L 571.5 264 L 571.5 466 L 569 469.5 Z
M 381.5 426 L 391 424.5 L 403 419.5 L 415 410.5 L 420.5 404 L 427.5 391 L 430.5 382 L 431.5 372 L 432.5 371 L 432.5 359 L 431.5 358 L 430.5 347 L 423.5 331 L 419.5 325 L 409 314.5 L 397 307.5 L 388 304.5 L 383 304.5 L 382 303.5 L 366 303.5 L 365 304.5 L 356 305.5 L 342 311.5 L 334.5 318 L 325.5 328 L 320.5 337 L 317.5 346 L 317.5 349 L 316.5 350 L 316.5 355 L 315.5 356 L 315.5 375 L 316.5 376 L 317.5 385 L 321.5 394 L 321.5 396 L 326.5 404 L 338 415.5 L 342 418.5 L 355 424.5 L 365 425.5 L 366 426.5 L 381.5 426 Z
M 742 380.5 L 620 380.5 L 617.5 378 L 617.5 337 L 622 333.5 L 741 333.5 L 744.5 336 L 744.5 378 L 742 380.5 Z"/>
    <path fill="url(#teal)" d="M 1741 474.5 L 1707 474.5 L 1706 473.5 L 1695 472.5 L 1694 471.5 L 1691 471.5 L 1679 467.5 L 1661 458.5 L 1655 454.5 L 1646 447.5 L 1636.5 438 L 1628.5 428 L 1627.5 425 L 1623.5 420 L 1622.5 416 L 1616.5 404 L 1614.5 398 L 1614.5 395 L 1613.5 394 L 1613.5 391 L 1612.5 390 L 1612.5 386 L 1611.5 385 L 1611.5 379 L 1610.5 378 L 1610.5 354 L 1611.5 353 L 1611.5 347 L 1612.5 346 L 1613.5 337 L 1616.5 330 L 1616.5 327 L 1618.5 324 L 1622.5 312 L 1624.5 310 L 1626.5 305 L 1636.5 292 L 1645 283.5 L 1661 271.5 L 1680 262.5 L 1692 258.5 L 1700 257.5 L 1701 256.5 L 1720 255.5 L 1721 254.5 L 1722 255.5 L 1740 255.5 L 1741 256.5 L 1746 256.5 L 1747 257.5 L 1756 258.5 L 1757 259.5 L 1760 259.5 L 1766 261.5 L 1787 271.5 L 1797 278.5 L 1808.5 289 L 1821.5 307 L 1828.5 321 L 1832.5 333 L 1832.5 336 L 1834.5 341 L 1834.5 345 L 1835.5 346 L 1835.5 352 L 1836.5 353 L 1836.5 378 L 1835.5 379 L 1834.5 390 L 1827.5 412 L 1822.5 422 L 1816.5 431 L 1805 444.5 L 1789 457.5 L 1767 468.5 L 1761 470.5 L 1758 470.5 L 1757 471.5 L 1754 471.5 L 1753 472.5 L 1748 472.5 L 1747 473.5 L 1742 473.5 L 1741 474.5 Z
M 848 469.5 L 797 469.5 L 794.5 465 L 795.5 464 L 795.5 276 L 794.5 275 L 795.5 273 L 794.5 271 L 795.5 263 L 798 260.5 L 847 260.5 L 848.5 263 L 849 289.5 L 856.5 279 L 866 269.5 L 881 260.5 L 890 257.5 L 893 257.5 L 894 256.5 L 902 256.5 L 903 255.5 L 921 256.5 L 923.5 258 L 925.5 261 L 925.5 307 L 921 310.5 L 919 309.5 L 914 309.5 L 913 308.5 L 893 308.5 L 892 309.5 L 888 309.5 L 882 311.5 L 872 317.5 L 862.5 327 L 855.5 339 L 852.5 348 L 852.5 351 L 851.5 352 L 851.5 356 L 850.5 357 L 850.5 392 L 849.5 393 L 850.5 395 L 850.5 401 L 849.5 402 L 849.5 405 L 850.5 406 L 850.5 410 L 849.5 411 L 850.5 413 L 850.5 420 L 849.5 421 L 850.5 440 L 849.5 441 L 849.5 467 L 848 469.5 Z
M 1074 474.5 L 1040 474.5 L 1039 473.5 L 1028 472.5 L 1004 464.5 L 989 456.5 L 973 443.5 L 964.5 434 L 956.5 422 L 950.5 410 L 945.5 395 L 945.5 391 L 943.5 386 L 943.5 381 L 942.5 380 L 942.5 371 L 941.5 370 L 942.5 349 L 943.5 348 L 943.5 343 L 944.5 342 L 944.5 338 L 947.5 330 L 947.5 327 L 954.5 311 L 963.5 297 L 968.5 291 L 983 277.5 L 993 270.5 L 1005 264.5 L 1007 264.5 L 1012 261.5 L 1021 258.5 L 1024 258.5 L 1025 257.5 L 1036 256.5 L 1037 255.5 L 1067 255.5 L 1068 256.5 L 1074 256.5 L 1075 257.5 L 1079 257.5 L 1080 258.5 L 1083 258.5 L 1084 259.5 L 1087 259.5 L 1093 261.5 L 1098 264.5 L 1104 266.5 L 1106 268.5 L 1116 273.5 L 1132.5 288 L 1143.5 303 L 1151.5 319 L 1154.5 328 L 1154.5 332 L 1155.5 333 L 1156.5 340 L 1157.5 341 L 1158.5 357 L 1159.5 358 L 1159.5 376 L 1157 380.5 L 1138 380.5 L 1137 381.5 L 1136 380.5 L 1135 381.5 L 1130 381.5 L 1129 380.5 L 998.5 381 L 998.5 385 L 999.5 386 L 999.5 389 L 1001.5 395 L 1007.5 406 L 1019 417.5 L 1034 425.5 L 1041 426.5 L 1042 427.5 L 1046 427.5 L 1047 428.5 L 1065 428.5 L 1066 427.5 L 1075 426.5 L 1081 424.5 L 1094 417.5 L 1098 414.5 L 1108 403.5 L 1109 403.5 L 1150.5 426 L 1151.5 428 L 1145.5 437 L 1132 450.5 L 1124 456.5 L 1100 468.5 L 1094 470.5 L 1091 470.5 L 1090 471.5 L 1087 471.5 L 1086 472.5 L 1081 472.5 L 1080 473.5 L 1075 473.5 L 1074 474.5 Z
M 1243 555.5 L 1242 554.5 L 1240 555.5 L 1234 555.5 L 1233 554.5 L 1205 554.5 L 1204 555.5 L 1199.5 553 L 1199.5 263 L 1202 260.5 L 1252 260.5 L 1254.5 265 L 1253.5 268 L 1254.5 269 L 1255 284.5 L 1266 272.5 L 1270 270.5 L 1273 267.5 L 1280 264.5 L 1282 262.5 L 1300 256.5 L 1305 256.5 L 1306 255.5 L 1333 255.5 L 1334 256.5 L 1339 256.5 L 1340 257.5 L 1349 258.5 L 1358 261.5 L 1361 263.5 L 1363 263.5 L 1383 274.5 L 1400.5 291 L 1402.5 295 L 1408.5 302 L 1411.5 309 L 1413.5 311 L 1413.5 313 L 1419.5 326 L 1421.5 332 L 1421.5 335 L 1422.5 336 L 1423.5 346 L 1424.5 347 L 1424.5 355 L 1425.5 356 L 1425.5 379 L 1424.5 380 L 1424.5 387 L 1423.5 388 L 1422.5 396 L 1418.5 408 L 1414.5 416 L 1414.5 418 L 1401.5 439 L 1387 453.5 L 1375 461.5 L 1363 467.5 L 1361 467.5 L 1355 470.5 L 1344 472.5 L 1343 473.5 L 1336 473.5 L 1335 474.5 L 1309 474.5 L 1308 473.5 L 1302 473.5 L 1301 472.5 L 1294 471.5 L 1288 468.5 L 1286 468.5 L 1273 461.5 L 1262 453.5 L 1255 445.5 L 1254.5 552 L 1252 554.5 L 1244 554.5 L 1243 555.5 Z
M 1516 469.5 L 1467 469.5 L 1464.5 467 L 1464.5 263 L 1467 260.5 L 1515 260.5 L 1517.5 263 L 1518 290.5 L 1525.5 280 L 1536 269.5 L 1551 260.5 L 1560 257.5 L 1572 256.5 L 1573 255.5 L 1580 255.5 L 1581 256.5 L 1590 256.5 L 1593 257.5 L 1595.5 260 L 1595.5 308 L 1594 309.5 L 1587 309.5 L 1586 308.5 L 1562 308.5 L 1561 309.5 L 1553 310.5 L 1539 318.5 L 1533.5 324 L 1526.5 335 L 1522.5 344 L 1520.5 354 L 1519.5 355 L 1519.5 360 L 1518.5 361 L 1518.5 467 L 1516 469.5 Z
M 1103.5 343 L 1103.5 338 L 1097.5 323 L 1093.5 317 L 1087 310.5 L 1081 306.5 L 1072 302.5 L 1066 301.5 L 1065 300.5 L 1060 300.5 L 1059 299.5 L 1041 300.5 L 1040 301.5 L 1037 301.5 L 1031 303.5 L 1021 308.5 L 1015 313.5 L 1007.5 322 L 1002.5 331 L 999.5 340 L 1000 343.5 L 1103.5 343 Z
M 1315.5 426 L 1322 425.5 L 1323 424.5 L 1326 424.5 L 1335 421.5 L 1346 415.5 L 1355.5 407 L 1360.5 400 L 1367.5 384 L 1368.5 375 L 1369.5 374 L 1369.5 355 L 1362.5 334 L 1357.5 326 L 1345 313.5 L 1334 307.5 L 1328 305.5 L 1318 304.5 L 1317 303.5 L 1305 303.5 L 1304 304.5 L 1299 304.5 L 1298 305.5 L 1291 306.5 L 1280 311.5 L 1266.5 324 L 1258.5 338 L 1255.5 347 L 1254.5 358 L 1253.5 359 L 1253.5 372 L 1254.5 373 L 1254.5 380 L 1255.5 381 L 1255.5 384 L 1258.5 393 L 1262.5 401 L 1272 412.5 L 1277 416.5 L 1291 423.5 L 1294 423.5 L 1299 425.5 L 1305 425.5 L 1306 426.5 L 1315.5 426 Z
M 1730.5 426 L 1744 423.5 L 1756 417.5 L 1770.5 404 L 1777.5 391 L 1780.5 382 L 1781.5 374 L 1782.5 373 L 1782.5 356 L 1781.5 355 L 1780.5 346 L 1774.5 332 L 1768.5 323 L 1761 315.5 L 1757 312.5 L 1742 305.5 L 1733 304.5 L 1732 303.5 L 1717 303.5 L 1716 304.5 L 1708 305.5 L 1693 311.5 L 1689 314.5 L 1675.5 329 L 1669.5 340 L 1667.5 346 L 1667.5 349 L 1666.5 350 L 1666.5 354 L 1665.5 355 L 1665.5 376 L 1666.5 377 L 1666.5 382 L 1672.5 397 L 1678.5 406 L 1686 413.5 L 1695 419.5 L 1707 424.5 L 1716 425.5 L 1717 426.5 L 1730.5 426 Z"/>
  </g>
</svg>
